<svg width="41" height="41" viewBox="0 0 41 41" fill="none" xmlns="http://www.w3.org/2000/svg">
<path d="M39.7797 37.7829L30.639 28.6423H30.5406C33.358 25.3204 34.7817 21.0377 34.514 16.6902C34.2463 12.3426 32.3079 8.26698 29.1043 5.31582C25.9006 2.36465 21.6799 0.766559 17.325 0.855844C12.9702 0.94513 8.81851 2.71487 5.73851 5.79487C2.65851 8.87487 0.888764 13.0265 0.799478 17.3814C0.710193 21.7363 2.30828 25.957 5.25945 29.1606C8.21062 32.3643 12.2863 34.3027 16.6338 34.5704C20.9813 34.8381 25.264 33.4144 28.5859 30.597C28.5859 30.597 28.5859 30.6673 28.5859 30.6954L37.7266 39.836C37.8573 39.9678 38.0128 40.0725 38.1842 40.1439C38.3555 40.2152 38.5393 40.252 38.725 40.252C38.9106 40.252 39.0944 40.2152 39.2658 40.1439C39.4372 40.0725 39.5927 39.9678 39.7234 39.836C39.8676 39.7084 39.984 39.5525 40.0655 39.378C40.1469 39.2035 40.1917 39.0142 40.1969 38.8217C40.2022 38.6292 40.1679 38.4377 40.0961 38.259C40.0244 38.0803 39.9166 37.9183 39.7797 37.7829ZM17.6875 31.7501C14.9062 31.7501 12.1873 30.9253 9.87478 29.3801C7.56221 27.8349 5.75979 25.6387 4.69543 23.0691C3.63107 20.4995 3.35259 17.672 3.89519 14.9441C4.4378 12.2163 5.77712 9.71059 7.7438 7.74391C9.71047 5.77724 12.2162 4.43791 14.944 3.89531C17.6719 3.3527 20.4994 3.63119 23.069 4.69555C25.6386 5.7599 27.8348 7.56233 29.38 9.87489C30.9252 12.1875 31.75 14.9063 31.75 17.6876C31.75 19.5343 31.3863 21.3629 30.6795 23.0691C29.9728 24.7752 28.937 26.3255 27.6312 27.6313C26.3254 28.9371 24.7751 29.9729 23.069 30.6797C21.3628 31.3864 19.5342 31.7501 17.6875 31.7501Z" fill="white" stroke="white" stroke-width="0.5"/>
</svg>
