<svg width="35" height="42" viewBox="0 0 35 42" fill="none" xmlns="http://www.w3.org/2000/svg">
<path d="M28.75 27.97L32.1479 31.3679C32.3925 31.6125 32.53 31.9444 32.53 32.2904V32.2904C32.53 33.0109 31.9459 33.595 31.2254 33.595H3.77647C3.05596 33.595 2.47186 33.0109 2.47186 32.2904V32.2904C2.47186 31.9444 2.60931 31.6125 2.85397 31.3679L6.25186 27.97V18.6531C6.25186 12.8518 9.32874 8.10622 14.6894 6.7881V5.46997C14.6894 3.88747 15.9194 2.65747 17.5019 2.65747C19.0844 2.65747 20.3144 3.88747 20.3144 5.46997V6.7881C25.675 8.10622 28.7519 12.94 28.7519 18.6531L28.75 27.97ZM17.5 39.22C15.3906 39.22 13.72 37.5493 13.72 35.5281H21.2781C21.2781 37.5493 19.5194 39.22 17.4981 39.22H17.5Z" stroke="white" stroke-width="4"/>
</svg>
